<?xml version='1.0' encoding='UTF-8'?>
<!DOCTYPE svg PUBLIC "-//W3C//DTD SVG 1.0//EN" "http://www.w3.org/TR/2001/REC-SVG-20010904/DTD/svg10.dtd">
<svg viewBox="0 0 1600 1482" xmlns="http://www.w3.org/2000/svg" xmlns:inkspace="http://www.inkscape.org/namespaces/inkscape" xmlns:xlink="http://www.w3.org/1999/xlink">
  <defs id="defs_block">
    <filter height="1.504" id="filter_blur" inkspace:collect="always" width="1.1575" x="-0.07875" y="-0.252">
      <feGaussianBlur id="feGaussianBlur3780" inkspace:collect="always" stdDeviation="4.2" />
    </filter>
  </defs>
  <title>blockdiag</title>
  <text x="0" y="16" fill="red" font-size="19" font-weight="bold">WARNING - More than one class ['Parent', 'ChildOne', 'ChildTwo', 'ChildOfChildTwo'] found in module testseqdiagbuilder do support method getCoordinate(location=''). Class ChildOfChildTwo chosen by default for building the sequence diagram.
	<tspan x="110" y="32">To override this selection, put tag :seqdiag_select_method somewhere in the method documentation.</tspan>
  </text>
  <desc>diagram {
  GUI -&gt; Controller [label = "getPrintableResultForInput(inputString)"];
		Controller -&gt; Requester [label = "getCommand(inputString)"];	
			Requester -&gt; Requester.self [label = "_parseAndFillCommandPrice(inputString)"];
				Requester.self -&gt; Requester.self [label = "_buildFullCommandPriceOptionalParmsDic()"];
				Requester.self &lt;-- Requester.self [label = "optionalParsedParmDataDic"];
			Requester &lt;-- Requester.self [label = "CommandPrice"];
		Controller &lt;-- Requester [label = "CommandPrice"];
		Controller -&gt; CommandPrice [label = "execute()"];	
			CommandPrice -&gt; Processor [label = "getCryptoPrice()"];
				Processor -&gt; PriceRequester [label = "getHistoricalPriceAtUTCTimeStamp()"];
					PriceRequester -&gt; PriceRequester [label = "_getHistoDayPriceAtUTCTimeStamp()"];
				Processor &lt;--PriceRequester [label = "ResultData"];
			CommandPrice &lt;-- Processor [label = "ResultData"];
		Controller &lt;-- CommandPrice [label = "ResultData"];
		Controller -&gt; Printer [label = "getPrintableData(ResultData)"];
		Controller &lt;-- Printer [label = "printResultString"];
		Controller -&gt; Printer [label = "getFullCommandString(ResultData)"];
		Controller &lt;-- Printer [label = "fullCommandStr, fullCommandStrWithOptions, fullCommandStrWithSaveModeOptions"];
  GUI &lt;-- Controller [label = "printResultString, fullCommandStr, fullCommandStrWithOptions, fullCommandStrWithSaveModeOptions"];
}</desc>
  <rect fill="rgb(0,0,0)" height="1305" style="filter:url(#filter_blur);opacity:0.7;fill-opacity:1" width="8" x="127" y="155" />
  <rect fill="rgb(0,0,0)" height="1259" style="filter:url(#filter_blur);opacity:0.7;fill-opacity:1" width="8" x="319" y="155" />
  <rect fill="rgb(0,0,0)" height="316" style="filter:url(#filter_blur);opacity:0.7;fill-opacity:1" width="8" x="511" y="221" />
  <rect fill="rgb(0,0,0)" height="172" style="filter:url(#filter_blur);opacity:0.7;fill-opacity:1" width="8" x="703" y="301" />
  <rect fill="rgb(0,0,0)" height="446" style="filter:url(#filter_blur);opacity:0.7;fill-opacity:1" width="8" x="895" y="602" />
  <rect fill="rgb(0,0,0)" height="316" style="filter:url(#filter_blur);opacity:0.7;fill-opacity:1" width="8" x="1087" y="668" />
  <rect fill="rgb(0,0,0)" height="173" style="filter:url(#filter_blur);opacity:0.7;fill-opacity:1" width="8" x="1279" y="747" />
  <rect fill="rgb(0,0,0)" height="65" style="filter:url(#filter_blur);opacity:0.7;fill-opacity:1" width="8" x="1471" y="1114" />
  <rect fill="rgb(0,0,0)" height="65" style="filter:url(#filter_blur);opacity:0.7;fill-opacity:1" width="8" x="1471" y="1245" />
  <rect fill="rgb(0,0,0)" height="40" stroke="rgb(0,0,0)" style="filter:url(#filter_blur);opacity:0.7;fill-opacity:1" width="128" x="67" y="46" />
  <rect fill="rgb(0,0,0)" height="40" stroke="rgb(0,0,0)" style="filter:url(#filter_blur);opacity:0.7;fill-opacity:1" width="128" x="259" y="46" />
  <rect fill="rgb(0,0,0)" height="40" stroke="rgb(0,0,0)" style="filter:url(#filter_blur);opacity:0.7;fill-opacity:1" width="128" x="451" y="46" />
  <rect fill="rgb(0,0,0)" height="40" stroke="rgb(0,0,0)" style="filter:url(#filter_blur);opacity:0.7;fill-opacity:1" width="128" x="643" y="46" />
  <rect fill="rgb(0,0,0)" height="40" stroke="rgb(0,0,0)" style="filter:url(#filter_blur);opacity:0.7;fill-opacity:1" width="128" x="835" y="46" />
  <rect fill="rgb(0,0,0)" height="40" stroke="rgb(0,0,0)" style="filter:url(#filter_blur);opacity:0.7;fill-opacity:1" width="128" x="1027" y="46" />
  <rect fill="rgb(0,0,0)" height="40" stroke="rgb(0,0,0)" style="filter:url(#filter_blur);opacity:0.7;fill-opacity:1" width="128" x="1219" y="46" />
  <rect fill="rgb(0,0,0)" height="40" stroke="rgb(0,0,0)" style="filter:url(#filter_blur);opacity:0.7;fill-opacity:1" width="128" x="1411" y="46" />
  <path d="M 128 80 L 128 1470" fill="none" stroke="rgb(0,0,0)" stroke-dasharray="8 4" />
  <rect fill="moccasin" height="1305" stroke="rgb(0,0,0)" width="8" x="124" y="149" />
  <path d="M 320 80 L 320 1470" fill="none" stroke="rgb(0,0,0)" stroke-dasharray="8 4" />
  <rect fill="moccasin" height="1259" stroke="rgb(0,0,0)" width="8" x="316" y="149" />
  <path d="M 512 80 L 512 1470" fill="none" stroke="rgb(0,0,0)" stroke-dasharray="8 4" />
  <rect fill="moccasin" height="316" stroke="rgb(0,0,0)" width="8" x="508" y="215" />
  <path d="M 704 80 L 704 1470" fill="none" stroke="rgb(0,0,0)" stroke-dasharray="8 4" />
  <rect fill="moccasin" height="172" stroke="rgb(0,0,0)" width="8" x="700" y="295" />
  <path d="M 896 80 L 896 1470" fill="none" stroke="rgb(0,0,0)" stroke-dasharray="8 4" />
  <rect fill="moccasin" height="446" stroke="rgb(0,0,0)" width="8" x="892" y="596" />
  <path d="M 1088 80 L 1088 1470" fill="none" stroke="rgb(0,0,0)" stroke-dasharray="8 4" />
  <rect fill="moccasin" height="316" stroke="rgb(0,0,0)" width="8" x="1084" y="662" />
  <path d="M 1280 80 L 1280 1470" fill="none" stroke="rgb(0,0,0)" stroke-dasharray="8 4" />
  <rect fill="moccasin" height="173" stroke="rgb(0,0,0)" width="8" x="1276" y="741" />
  <path d="M 1472 80 L 1472 1470" fill="none" stroke="rgb(0,0,0)" stroke-dasharray="8 4" />
  <rect fill="moccasin" height="65" stroke="rgb(0,0,0)" width="8" x="1468" y="1108" />
  <rect fill="moccasin" height="65" stroke="rgb(0,0,0)" width="8" x="1468" y="1239" />
  <rect fill="rgb(255,255,255)" height="40" stroke="rgb(0,0,0)" width="128" x="64" y="40" />
  <text fill="rgb(0,0,0)" font-family="sans-serif" font-size="11" font-style="normal" font-weight="normal" text-anchor="middle" textLength="18" x="128.0" y="65">GUI</text>
  <rect fill="rgb(255,255,255)" height="40" stroke="rgb(0,0,0)" width="128" x="256" y="40" />
  <text fill="rgb(0,0,0)" font-family="sans-serif" font-size="11" font-style="normal" font-weight="normal" text-anchor="middle" textLength="60" x="320.0" y="65">Controller</text>
  <rect fill="rgb(255,255,255)" height="40" stroke="rgb(0,0,0)" width="128" x="448" y="40" />
  <text fill="rgb(0,0,0)" font-family="sans-serif" font-size="11" font-style="normal" font-weight="normal" text-anchor="middle" textLength="54" x="512.0" y="66">Requester</text>
  <rect fill="rgb(255,255,255)" height="40" stroke="rgb(0,0,0)" width="128" x="640" y="40" />
  <text fill="rgb(0,0,0)" font-family="sans-serif" font-size="11" font-style="normal" font-weight="normal" text-anchor="middle" textLength="84" x="704.0" y="66">Requester.self</text>
  <rect fill="rgb(255,255,255)" height="40" stroke="rgb(0,0,0)" width="128" x="832" y="40" />
  <text fill="rgb(0,0,0)" font-family="sans-serif" font-size="11" font-style="normal" font-weight="normal" text-anchor="middle" textLength="72" x="896.0" y="65">CommandPrice</text>
  <rect fill="rgb(255,255,255)" height="40" stroke="rgb(0,0,0)" width="128" x="1024" y="40" />
  <text fill="rgb(0,0,0)" font-family="sans-serif" font-size="11" font-style="normal" font-weight="normal" text-anchor="middle" textLength="54" x="1088.0" y="65">Processor</text>
  <rect fill="rgb(255,255,255)" height="40" stroke="rgb(0,0,0)" width="128" x="1216" y="40" />
  <text fill="rgb(0,0,0)" font-family="sans-serif" font-size="11" font-style="normal" font-weight="normal" text-anchor="middle" textLength="84" x="1280.0" y="66">PriceRequester</text>
  <rect fill="rgb(255,255,255)" height="40" stroke="rgb(0,0,0)" width="128" x="1408" y="40" />
  <text fill="rgb(0,0,0)" font-family="sans-serif" font-size="11" font-style="normal" font-weight="normal" text-anchor="middle" textLength="42" x="1472.0" y="65">Printer</text>
  <path d="M 136 149 L 312 149" fill="none" stroke="rgb(0,0,0)" />
  <polygon fill="rgb(0,0,0)" points="304,145 312,149 304,153" stroke="rgb(0,0,0)" />
  <path d="M 328 215 L 504 215" fill="none" stroke="rgb(0,0,0)" />
  <polygon fill="rgb(0,0,0)" points="496,211 504,215 496,219" stroke="rgb(0,0,0)" />
  <path d="M 520 295 L 696 295" fill="none" stroke="rgb(0,0,0)" />
  <polygon fill="rgb(0,0,0)" points="688,291 696,295 688,299" stroke="rgb(0,0,0)" />
  <path d="M 712 387 L 800 387" fill="none" stroke="rgb(0,0,0)" />
  <path d="M 800 387 L 800 403" fill="none" stroke="rgb(0,0,0)" />
  <path d="M 800 403 L 712 403" fill="none" stroke="rgb(0,0,0)" />
  <polygon fill="rgb(0,0,0)" points="720,399 712,403 720,407" stroke="rgb(0,0,0)" />
  <path d="M 520 467 L 696 467" fill="none" stroke="rgb(0,0,0)" stroke-dasharray="4" />
  <polygon fill="rgb(0,0,0)" points="528,463 520,467 528,471" stroke="rgb(0,0,0)" />
  <path d="M 328 531 L 504 531" fill="none" stroke="rgb(0,0,0)" stroke-dasharray="4" />
  <polygon fill="rgb(0,0,0)" points="336,527 328,531 336,535" stroke="rgb(0,0,0)" />
  <path d="M 328 596 L 888 596" fill="none" stroke="rgb(0,0,0)" />
  <polygon fill="rgb(0,0,0)" points="880,592 888,596 880,600" stroke="rgb(0,0,0)" />
  <path d="M 904 662 L 1080 662" fill="none" stroke="rgb(0,0,0)" />
  <polygon fill="rgb(0,0,0)" points="1072,658 1080,662 1072,666" stroke="rgb(0,0,0)" />
  <path d="M 1096 741 L 1272 741" fill="none" stroke="rgb(0,0,0)" />
  <polygon fill="rgb(0,0,0)" points="1264,737 1272,741 1264,745" stroke="rgb(0,0,0)" />
  <path d="M 1288 834 L 1376 834" fill="none" stroke="rgb(0,0,0)" />
  <path d="M 1376 834 L 1376 850" fill="none" stroke="rgb(0,0,0)" />
  <path d="M 1376 850 L 1288 850" fill="none" stroke="rgb(0,0,0)" />
  <polygon fill="rgb(0,0,0)" points="1296,846 1288,850 1296,854" stroke="rgb(0,0,0)" />
  <path d="M 1096 914 L 1272 914" fill="none" stroke="rgb(0,0,0)" stroke-dasharray="4" />
  <polygon fill="rgb(0,0,0)" points="1104,910 1096,914 1104,918" stroke="rgb(0,0,0)" />
  <path d="M 904 978 L 1080 978" fill="none" stroke="rgb(0,0,0)" stroke-dasharray="4" />
  <polygon fill="rgb(0,0,0)" points="912,974 904,978 912,982" stroke="rgb(0,0,0)" />
  <path d="M 328 1042 L 888 1042" fill="none" stroke="rgb(0,0,0)" stroke-dasharray="4" />
  <polygon fill="rgb(0,0,0)" points="336,1038 328,1042 336,1046" stroke="rgb(0,0,0)" />
  <path d="M 328 1108 L 1464 1108" fill="none" stroke="rgb(0,0,0)" />
  <polygon fill="rgb(0,0,0)" points="1456,1104 1464,1108 1456,1112" stroke="rgb(0,0,0)" />
  <path d="M 328 1173 L 1464 1173" fill="none" stroke="rgb(0,0,0)" stroke-dasharray="4" />
  <polygon fill="rgb(0,0,0)" points="336,1169 328,1173 336,1177" stroke="rgb(0,0,0)" />
  <path d="M 328 1239 L 1464 1239" fill="none" stroke="rgb(0,0,0)" />
  <polygon fill="rgb(0,0,0)" points="1456,1235 1464,1239 1456,1243" stroke="rgb(0,0,0)" />
  <path d="M 328 1304 L 1464 1304" fill="none" stroke="rgb(0,0,0)" stroke-dasharray="4" />
  <polygon fill="rgb(0,0,0)" points="336,1300 328,1304 336,1308" stroke="rgb(0,0,0)" />
  <path d="M 136 1408 L 312 1408" fill="none" stroke="rgb(0,0,0)" stroke-dasharray="4" />
  <polygon fill="rgb(0,0,0)" points="144,1404 136,1408 144,1412" stroke="rgb(0,0,0)" />
  <text fill="rgb(0,0,0)" font-family="sans-serif" font-size="11" font-style="normal" font-weight="normal" text-anchor="middle" textLength="168" x="224.0" y="134">getPrintableResultForInput(i</text>
  <text fill="rgb(0,0,0)" font-family="sans-serif" font-size="11" font-style="normal" font-weight="normal" text-anchor="middle" textLength="66" x="173.0" y="148">nputString)</text>
  <text fill="rgb(0,0,0)" font-family="sans-serif" font-size="11" font-style="normal" font-weight="normal" text-anchor="middle" textLength="138" x="401.0" y="213">getCommand(inputString)</text>
  <text fill="rgb(0,0,0)" font-family="sans-serif" font-size="11" font-style="normal" font-weight="normal" text-anchor="middle" textLength="168" x="608.0" y="279">_parseAndFillCommandPrice(in</text>
  <text fill="rgb(0,0,0)" font-family="sans-serif" font-size="11" font-style="normal" font-weight="normal" text-anchor="middle" textLength="60" x="554.0" y="293">putString)</text>
  <text fill="rgb(0,0,0)" font-family="sans-serif" font-size="11" font-style="normal" font-weight="normal" text-anchor="middle" textLength="108" x="766.0" y="359">_buildFullCommandP</text>
  <text fill="rgb(0,0,0)" font-family="sans-serif" font-size="11" font-style="normal" font-weight="normal" text-anchor="middle" textLength="108" x="766.0" y="372">riceOptionalParmsD</text>
  <text fill="rgb(0,0,0)" font-family="sans-serif" font-size="11" font-style="normal" font-weight="normal" text-anchor="middle" textLength="24" x="724.0" y="385">ic()</text>
  <text fill="rgb(0,0,0)" font-family="sans-serif" font-size="11" font-style="normal" font-weight="normal" text-anchor="middle" textLength="72" x="660.0" y="465">CommandPrice</text>
  <text fill="rgb(0,0,0)" font-family="sans-serif" font-size="11" font-style="normal" font-weight="normal" text-anchor="middle" textLength="72" x="468.0" y="529">CommandPrice</text>
  <text fill="rgb(0,0,0)" font-family="sans-serif" font-size="11" font-style="normal" font-weight="normal" text-anchor="middle" textLength="54" x="359.0" y="594">execute()</text>
  <text fill="rgb(0,0,0)" font-family="sans-serif" font-size="11" font-style="normal" font-weight="normal" text-anchor="middle" textLength="96" x="956.0" y="660">getCryptoPrice()</text>
  <text fill="rgb(0,0,0)" font-family="sans-serif" font-size="11" font-style="normal" font-weight="normal" text-anchor="middle" textLength="168" x="1184.0" y="725">getHistoricalPriceAtUTCTimeS</text>
  <text fill="rgb(0,0,0)" font-family="sans-serif" font-size="11" font-style="normal" font-weight="normal" text-anchor="middle" textLength="36" x="1118.0" y="739">tamp()</text>
  <text fill="rgb(0,0,0)" font-family="sans-serif" font-size="11" font-style="normal" font-weight="normal" text-anchor="middle" textLength="108" x="1342.0" y="812">_getHistoDayPriceA</text>
  <text fill="rgb(0,0,0)" font-family="sans-serif" font-size="11" font-style="normal" font-weight="normal" text-anchor="middle" textLength="90" x="1333.0" y="826">tUTCTimeStamp()</text>
  <text fill="rgb(0,0,0)" font-family="sans-serif" font-size="11" font-style="normal" font-weight="normal" text-anchor="middle" textLength="60" x="1242.0" y="912">ResultData</text>
  <text fill="rgb(0,0,0)" font-family="sans-serif" font-size="11" font-style="normal" font-weight="normal" text-anchor="middle" textLength="60" x="1050.0" y="976">ResultData</text>
  <text fill="rgb(0,0,0)" font-family="sans-serif" font-size="11" font-style="normal" font-weight="normal" text-anchor="middle" textLength="60" x="858.0" y="1040">ResultData</text>
  <text fill="rgb(0,0,0)" font-family="sans-serif" font-size="11" font-style="normal" font-weight="normal" text-anchor="middle" textLength="168" x="416.0" y="1106">getPrintableData(ResultData)</text>
  <text fill="rgb(0,0,0)" font-family="sans-serif" font-size="11" font-style="normal" font-weight="normal" text-anchor="middle" textLength="102" x="1413.0" y="1171">printResultString</text>
  <text fill="rgb(0,0,0)" font-family="sans-serif" font-size="11" font-style="normal" font-weight="normal" text-anchor="middle" textLength="192" x="428.0" y="1237">getFullCommandString(ResultData)</text>
  <text fill="rgb(0,0,0)" font-family="sans-serif" font-size="11" font-style="normal" font-weight="normal" text-anchor="middle" textLength="456" x="1236.0" y="1302">fullCommandStr, fullCommandStrWithOptions, fullCommandStrWithSaveModeOptions</text>
  <text fill="rgb(0,0,0)" font-family="sans-serif" font-size="11" font-style="normal" font-weight="normal" text-anchor="middle" textLength="168" x="228.0" y="1367">printResultString, fullComma</text>
  <text fill="rgb(0,0,0)" font-family="sans-serif" font-size="11" font-style="normal" font-weight="normal" text-anchor="middle" textLength="168" x="228.0" y="1380">ndStr, fullCommandStrWithOpt</text>
  <text fill="rgb(0,0,0)" font-family="sans-serif" font-size="11" font-style="normal" font-weight="normal" text-anchor="middle" textLength="168" x="228.0" y="1393">ions, fullCommandStrWithSave</text>
  <text fill="rgb(0,0,0)" font-family="sans-serif" font-size="11" font-style="normal" font-weight="normal" text-anchor="middle" textLength="66" x="279.0" y="1406">ModeOptions</text>
</svg>
